<svg xmlns="http://www.w3.org/2000/svg" xmlns:xlink="http://www.w3.org/1999/xlink" width="1920" zoomAndPan="magnify" viewBox="0 0 1440 809.999993" height="1080" preserveAspectRatio="xMidYMid meet" version="1.0"><defs><g><g id="id1"/><g id="id2"/></g></defs><g fill="rgb(100%, 100%, 100%)" fill-opacity="1"><g transform="translate(277.488812, 390.469116)"><g><path d="M 226.484375 0 L 169.15625 0 L 156.46875 -22.078125 L 71.421875 -22.078125 L 58.734375 0 L 1.40625 0 L 87.6875 -134.765625 L 140.21875 -134.765625 Z M 137.390625 -55.453125 L 114 -96.328125 L 90.5 -55.453125 Z M 137.390625 -55.453125 "/></g></g><g transform="translate(505.392029, 390.469116)"><g><path d="M 215.125 0 L 147.828125 0 L 71.609375 -91.25 L 71.609375 0 L 15.03125 0 L 15.03125 -134.859375 L 82.328125 -134.859375 L 158.546875 -44.078125 L 158.546875 -134.859375 L 215.125 -134.859375 Z M 215.125 0 "/></g></g></g><g fill="rgb(100%, 100%, 100%)" fill-opacity="1"><g transform="translate(722.973749, 390.469116)"><g><path d="M 236.453125 0 L 162.953125 0 L 105.0625 -45.109375 L 71.609375 -22.265625 L 71.609375 0 L 15.03125 0 L 15.03125 -134.859375 L 71.609375 -134.859375 L 71.609375 -72.453125 L 162.390625 -134.859375 L 236.453125 -134.859375 L 139.84375 -68.890625 Z M 236.453125 0 "/></g></g></g><g fill="rgb(100%, 100%, 100%)" fill-opacity="1"><g transform="translate(922.343824, 390.469116)"><g><path d="M 71.609375 0 L 15.03125 0 L 15.03125 -134.859375 L 71.609375 -134.859375 Z M 71.609375 0 "/></g></g></g><g fill="rgb(100%, 100%, 100%)" fill-opacity="1"><g transform="translate(970.498935, 390.469116)"><g><path d="M 115.03125 0 L 58.453125 0 L 58.453125 -101.5 L 5.640625 -101.5 L 5.640625 -134.859375 L 167.84375 -134.859375 L 167.84375 -101.5 L 115.03125 -101.5 Z M 115.03125 0 "/></g></g></g><g fill="rgb(100%, 100%, 100%)" fill-opacity="1"><g transform="translate(252.849285, 556.037344)"><g><path d="M 76.59375 0 L 10.9375 0 L 10.9375 -98.125 L 76.59375 -98.125 C 103.4375 -98.125 122.742188 -94.363281 134.515625 -86.84375 C 143.992188 -80.78125 149.394531 -72.53125 150.71875 -62.09375 C 151.3125 -57.582031 151.609375 -53.226562 151.609375 -49.03125 C 151.609375 -44.882812 151.320312 -40.539062 150.75 -36 C 150.175781 -31.46875 148.660156 -27.066406 146.203125 -22.796875 C 143.742188 -18.535156 139.832031 -14.695312 134.46875 -11.28125 C 129.113281 -7.863281 121.773438 -5.128906 112.453125 -3.078125 C 103.128906 -1.023438 91.175781 0 76.59375 0 Z M 72.6875 -24.28125 C 93.613281 -24.28125 105.445312 -29.566406 108.1875 -40.140625 C 108.914062 -43.097656 109.28125 -46.0625 109.28125 -49.03125 C 109.28125 -52.039062 108.898438 -55.015625 108.140625 -57.953125 C 107.390625 -60.890625 105.796875 -63.554688 103.359375 -65.953125 C 100.921875 -68.347656 97.257812 -70.265625 92.375 -71.703125 C 87.5 -73.140625 80.9375 -73.859375 72.6875 -73.859375 L 52.109375 -73.859375 L 52.109375 -24.28125 Z M 72.6875 -24.28125 "/></g></g></g><g fill="rgb(100%, 100%, 100%)" fill-opacity="1"><g transform="translate(409.214377, 556.037344)"><g><path d="M 165.28125 0 L 130.953125 0 L 106.75 -63.734375 L 82.53125 0 L 48.203125 0 L 1.03125 -98.0625 L 42.734375 -98.0625 L 67.359375 -35.765625 L 93.75 -98.0625 L 119.734375 -98.0625 L 146.140625 -35.765625 L 170.75 -98.0625 L 212.46875 -98.0625 Z M 165.28125 0 "/></g></g></g><g fill="rgb(100%, 100%, 100%)" fill-opacity="1"><g transform="translate(621.991662, 556.037344)"><g><path d="M 52.109375 0 L 10.9375 0 L 10.9375 -98.125 L 52.109375 -98.125 Z M 52.109375 0 "/></g></g></g><g fill="rgb(100%, 100%, 100%)" fill-opacity="1"><g transform="translate(684.33637, 556.037344)"><g><path d="M 94.234375 0 L 56 0 L 1.03125 -98.0625 L 42.734375 -98.0625 L 75.15625 -27.96875 L 107.5 -98.0625 L 149.203125 -98.0625 Z M 94.234375 0 "/></g></g></g><g fill="rgb(100%, 100%, 100%)" fill-opacity="1"><g transform="translate(833.86363, 556.037344)"><g><path d="M 129.109375 0 L 10.9375 0 L 10.9375 -98.125 L 123.703125 -98.125 L 123.703125 -73.859375 L 52.109375 -73.859375 L 52.109375 -58.46875 L 112.625 -58.46875 L 112.625 -39.59375 L 52.109375 -39.59375 L 52.109375 -24.28125 L 129.109375 -24.28125 Z M 129.109375 0 "/></g></g></g><g fill="rgb(100%, 100%, 100%)" fill-opacity="1"><g transform="translate(967.732218, 556.037344)"><g><path d="M 76.59375 0 L 10.9375 0 L 10.9375 -98.125 L 76.59375 -98.125 C 103.4375 -98.125 122.742188 -94.363281 134.515625 -86.84375 C 143.992188 -80.78125 149.394531 -72.53125 150.71875 -62.09375 C 151.3125 -57.582031 151.609375 -53.226562 151.609375 -49.03125 C 151.609375 -44.882812 151.320312 -40.539062 150.75 -36 C 150.175781 -31.46875 148.660156 -27.066406 146.203125 -22.796875 C 143.742188 -18.535156 139.832031 -14.695312 134.46875 -11.28125 C 129.113281 -7.863281 121.773438 -5.128906 112.453125 -3.078125 C 103.128906 -1.023438 91.175781 0 76.59375 0 Z M 72.6875 -24.28125 C 93.613281 -24.28125 105.445312 -29.566406 108.1875 -40.140625 C 108.914062 -43.097656 109.28125 -46.0625 109.28125 -49.03125 C 109.28125 -52.039062 108.898438 -55.015625 108.140625 -57.953125 C 107.390625 -60.890625 105.796875 -63.554688 103.359375 -65.953125 C 100.921875 -68.347656 97.257812 -70.265625 92.375 -71.703125 C 87.5 -73.140625 80.9375 -73.859375 72.6875 -73.859375 L 52.109375 -73.859375 L 52.109375 -24.28125 Z M 72.6875 -24.28125 "/></g></g></g><g fill="rgb(100%, 100%, 100%)" fill-opacity="1"><g transform="translate(1124.09728, 556.037344)"><g><path d="M 52.109375 0 L 10.9375 0 L 10.9375 -98.125 L 52.109375 -98.125 Z M 52.109375 0 "/></g></g></g></svg>