<svg xmlns="http://www.w3.org/2000/svg" xmlns:xlink="http://www.w3.org/1999/xlink" width="1920" zoomAndPan="magnify" viewBox="0 0 1440 809.999993" height="1080" preserveAspectRatio="xMidYMid meet" version="1.0"><defs><g><g id="id1"/><g id="id2"/></g></defs><g fill="rgb(100%, 100%, 100%)" fill-opacity="1"><g transform="translate(136.36491, 404.281365)"><g><path d="M 103.609375 0 L 14.796875 0 L 14.796875 -132.75 L 103.609375 -132.75 C 139.929688 -132.75 166.046875 -127.660156 181.953125 -117.484375 C 194.785156 -109.285156 202.097656 -98.125 203.890625 -84 C 204.691406 -77.894531 205.09375 -72.003906 205.09375 -66.328125 C 205.09375 -60.710938 204.707031 -54.835938 203.9375 -48.703125 C 203.164062 -42.566406 201.113281 -36.613281 197.78125 -30.84375 C 194.445312 -25.082031 189.15625 -19.890625 181.90625 -15.265625 C 174.664062 -10.640625 164.738281 -6.9375 152.125 -4.15625 C 139.507812 -1.382812 123.335938 0 103.609375 0 Z M 98.328125 -32.84375 C 126.640625 -32.84375 142.644531 -39.992188 146.34375 -54.296875 C 147.332031 -58.304688 147.828125 -62.316406 147.828125 -66.328125 C 147.828125 -70.398438 147.316406 -74.421875 146.296875 -78.390625 C 145.273438 -82.367188 143.113281 -85.976562 139.8125 -89.21875 C 136.519531 -92.457031 131.570312 -95.046875 124.96875 -96.984375 C 118.375 -98.929688 109.492188 -99.90625 98.328125 -99.90625 L 70.484375 -99.90625 L 70.484375 -32.84375 Z M 98.328125 -32.84375 "/></g></g></g><g fill="rgb(100%, 100%, 100%)" fill-opacity="1"><g transform="translate(348.819044, 404.281365)"><g><path d="M 223.59375 0 L 177.15625 0 L 144.40625 -86.21875 L 111.65625 0 L 65.21875 0 L 1.390625 -132.65625 L 57.8125 -132.65625 L 91.125 -48.375 L 126.828125 -132.65625 L 161.984375 -132.65625 L 197.6875 -48.375 L 230.984375 -132.65625 L 287.421875 -132.65625 Z M 223.59375 0 "/></g></g></g><g fill="rgb(100%, 100%, 100%)" fill-opacity="1"><g transform="translate(637.579053, 404.281365)"><g><path d="M 70.484375 0 L 14.796875 0 L 14.796875 -132.75 L 70.484375 -132.75 Z M 70.484375 0 "/></g></g></g><g fill="rgb(100%, 100%, 100%)" fill-opacity="1"><g transform="translate(712.103218, 404.281365)"><g><path d="M 127.46875 0 L 75.765625 0 L 1.390625 -132.65625 L 57.8125 -132.65625 L 101.671875 -37.828125 L 145.421875 -132.65625 L 201.84375 -132.65625 Z M 127.46875 0 "/></g></g></g><g fill="rgb(100%, 100%, 100%)" fill-opacity="1"><g transform="translate(877.413039, 404.281365)"><g><path d="M 174.65625 0 L 14.796875 0 L 14.796875 -132.75 L 167.34375 -132.75 L 167.34375 -99.90625 L 70.484375 -99.90625 L 70.484375 -79.09375 L 152.359375 -79.09375 L 152.359375 -53.5625 L 70.484375 -53.5625 L 70.484375 -32.84375 L 174.65625 -32.84375 Z M 174.65625 0 "/></g></g></g><g fill="rgb(100%, 100%, 100%)" fill-opacity="1"><g transform="translate(1021.542172, 404.281365)"><g><path d="M 103.609375 0 L 14.796875 0 L 14.796875 -132.75 L 103.609375 -132.75 C 139.929688 -132.75 166.046875 -127.660156 181.953125 -117.484375 C 194.785156 -109.285156 202.097656 -98.125 203.890625 -84 C 204.691406 -77.894531 205.09375 -72.003906 205.09375 -66.328125 C 205.09375 -60.710938 204.707031 -54.835938 203.9375 -48.703125 C 203.164062 -42.566406 201.113281 -36.613281 197.78125 -30.84375 C 194.445312 -25.082031 189.15625 -19.890625 181.90625 -15.265625 C 174.664062 -10.640625 164.738281 -6.9375 152.125 -4.15625 C 139.507812 -1.382812 123.335938 0 103.609375 0 Z M 98.328125 -32.84375 C 126.640625 -32.84375 142.644531 -39.992188 146.34375 -54.296875 C 147.332031 -58.304688 147.828125 -62.316406 147.828125 -66.328125 C 147.828125 -70.398438 147.316406 -74.421875 146.296875 -78.390625 C 145.273438 -82.367188 143.113281 -85.976562 139.8125 -89.21875 C 136.519531 -92.457031 131.570312 -95.046875 124.96875 -96.984375 C 118.375 -98.929688 109.492188 -99.90625 98.328125 -99.90625 L 70.484375 -99.90625 L 70.484375 -32.84375 Z M 98.328125 -32.84375 "/></g></g></g><g fill="rgb(100%, 100%, 100%)" fill-opacity="1"><g transform="translate(1196.091187, 404.281365)"><g/></g></g><g fill="rgb(100%, 100%, 100%)" fill-opacity="1"><g transform="translate(1205.182001, 404.281365)"><g/></g></g><g fill="rgb(100%, 100%, 100%)" fill-opacity="1"><g transform="translate(1214.272815, 404.281365)"><g/></g></g><g fill="rgb(100%, 100%, 100%)" fill-opacity="1"><g transform="translate(1223.334132, 404.281365)"><g><path d="M 70.484375 0 L 14.796875 0 L 14.796875 -132.75 L 70.484375 -132.75 Z M 70.484375 0 "/></g></g></g><g fill="rgb(100%, 100%, 100%)" fill-opacity="1"><g transform="translate(149.374914, 549.226696)"><g><path d="M 59.796875 0 L 30.390625 0 L 30.390625 -52.765625 L 2.9375 -52.765625 L 2.9375 -70.09375 L 87.25 -70.09375 L 87.25 -52.765625 L 59.796875 -52.765625 Z M 59.796875 0 "/></g></g></g><g fill="rgb(100%, 100%, 100%)" fill-opacity="1"><g transform="translate(239.039546, 549.226696)"><g><path d="M 92.234375 0 L 7.8125 0 L 7.8125 -70.09375 L 88.375 -70.09375 L 88.375 -52.765625 L 37.21875 -52.765625 L 37.21875 -41.765625 L 80.453125 -41.765625 L 80.453125 -28.28125 L 37.21875 -28.28125 L 37.21875 -17.34375 L 92.234375 -17.34375 Z M 92.234375 0 "/></g></g></g><g fill="rgb(100%, 100%, 100%)" fill-opacity="1"><g transform="translate(334.663071, 549.226696)"><g><path d="M 53 1.515625 C 35.675781 1.515625 22.925781 -2.050781 14.75 -9.1875 C 7.519531 -15.46875 3.90625 -24.066406 3.90625 -34.984375 C 3.90625 -45.890625 7.519531 -54.5 14.75 -60.8125 C 22.925781 -67.914062 35.675781 -71.46875 53 -71.46875 C 63.164062 -71.46875 71.566406 -70.300781 78.203125 -67.96875 C 84.847656 -65.644531 90.007812 -62.460938 93.6875 -58.421875 C 97.375 -54.390625 99.820312 -49.765625 101.03125 -44.546875 L 70.09375 -44.546875 C 67 -49.984375 61.300781 -52.703125 53 -52.703125 C 45.90625 -52.703125 40.679688 -50.65625 37.328125 -46.5625 C 34.648438 -43.300781 33.3125 -39.441406 33.3125 -34.984375 C 33.3125 -30.515625 34.648438 -26.65625 37.328125 -23.40625 C 40.679688 -19.300781 45.90625 -17.25 53 -17.25 C 61.300781 -17.25 67 -19.984375 70.09375 -25.453125 L 101.03125 -25.453125 C 99.820312 -20.210938 97.375 -15.570312 93.6875 -11.53125 C 90.007812 -7.488281 84.847656 -4.300781 78.203125 -1.96875 C 71.566406 0.351562 63.164062 1.515625 53 1.515625 Z M 53 1.515625 "/></g></g></g><g fill="rgb(100%, 100%, 100%)" fill-opacity="1"><g transform="translate(439.078399, 549.226696)"><g><path d="M 103.5625 0 L 74.15625 0 L 74.15625 -28.28125 L 37.21875 -28.28125 L 37.21875 0 L 7.8125 0 L 7.8125 -70.09375 L 37.21875 -70.09375 L 37.21875 -41.765625 L 74.15625 -41.765625 L 74.15625 -70.09375 L 103.5625 -70.09375 Z M 103.5625 0 "/></g></g></g><g fill="rgb(100%, 100%, 100%)" fill-opacity="1"><g transform="translate(549.941041, 549.226696)"><g><path d="M 111.8125 0 L 76.84375 0 L 37.21875 -47.4375 L 37.21875 0 L 7.8125 0 L 7.8125 -70.09375 L 42.796875 -70.09375 L 82.40625 -22.90625 L 82.40625 -70.09375 L 111.8125 -70.09375 Z M 111.8125 0 "/></g></g></g><g fill="rgb(100%, 100%, 100%)" fill-opacity="1"><g transform="translate(669.058238, 549.226696)"><g><path d="M 53 1.515625 C 35.675781 1.515625 22.925781 -2.050781 14.75 -9.1875 C 7.519531 -15.5 3.90625 -24.113281 3.90625 -35.03125 C 3.90625 -45.90625 7.519531 -54.5 14.75 -60.8125 C 22.925781 -67.945312 35.675781 -71.515625 53 -71.515625 C 70.320312 -71.515625 83.070312 -67.945312 91.25 -60.8125 C 98.476562 -54.5 102.09375 -45.90625 102.09375 -35.03125 C 102.09375 -24.113281 98.476562 -15.5 91.25 -9.1875 C 83.070312 -2.050781 70.320312 1.515625 53 1.515625 Z M 53 -17.296875 C 60.101562 -17.296875 65.316406 -19.332031 68.640625 -23.40625 C 71.304688 -26.6875 72.640625 -30.5625 72.640625 -35.03125 C 72.640625 -39.488281 71.304688 -43.347656 68.640625 -46.609375 C 65.316406 -50.710938 60.101562 -52.765625 53 -52.765625 C 45.90625 -52.765625 40.679688 -50.710938 37.328125 -46.609375 C 34.648438 -43.347656 33.3125 -39.488281 33.3125 -35.03125 C 33.3125 -30.5625 34.648438 -26.6875 37.328125 -23.40625 C 40.679688 -19.332031 45.90625 -17.296875 53 -17.296875 Z M 53 -17.296875 "/></g></g></g><g fill="rgb(100%, 100%, 100%)" fill-opacity="1"><g transform="translate(774.548131, 549.226696)"><g><path d="M 89.640625 0 L 7.8125 0 L 7.8125 -70.09375 L 37.21875 -70.09375 L 37.21875 -17.34375 L 89.640625 -17.34375 Z M 89.640625 0 "/></g></g></g><g fill="rgb(100%, 100%, 100%)" fill-opacity="1"><g transform="translate(865.629227, 549.226696)"><g><path d="M 53 1.515625 C 35.675781 1.515625 22.925781 -2.050781 14.75 -9.1875 C 7.519531 -15.5 3.90625 -24.113281 3.90625 -35.03125 C 3.90625 -45.90625 7.519531 -54.5 14.75 -60.8125 C 22.925781 -67.945312 35.675781 -71.515625 53 -71.515625 C 70.320312 -71.515625 83.070312 -67.945312 91.25 -60.8125 C 98.476562 -54.5 102.09375 -45.90625 102.09375 -35.03125 C 102.09375 -24.113281 98.476562 -15.5 91.25 -9.1875 C 83.070312 -2.050781 70.320312 1.515625 53 1.515625 Z M 53 -17.296875 C 60.101562 -17.296875 65.316406 -19.332031 68.640625 -23.40625 C 71.304688 -26.6875 72.640625 -30.5625 72.640625 -35.03125 C 72.640625 -39.488281 71.304688 -43.347656 68.640625 -46.609375 C 65.316406 -50.710938 60.101562 -52.765625 53 -52.765625 C 45.90625 -52.765625 40.679688 -50.710938 37.328125 -46.609375 C 34.648438 -43.347656 33.3125 -39.488281 33.3125 -35.03125 C 33.3125 -30.5625 34.648438 -26.6875 37.328125 -23.40625 C 40.679688 -19.332031 45.90625 -17.296875 53 -17.296875 Z M 53 -17.296875 "/></g></g></g><g fill="rgb(100%, 100%, 100%)" fill-opacity="1"><g transform="translate(971.119074, 549.226696)"><g><path d="M 53 1.515625 C 35.675781 1.515625 22.925781 -2.050781 14.75 -9.1875 C 7.519531 -15.5 3.90625 -24.097656 3.90625 -34.984375 C 3.90625 -45.890625 7.519531 -54.5 14.75 -60.8125 C 22.925781 -67.945312 35.675781 -71.515625 53 -71.515625 C 62.875 -71.515625 71.082031 -70.40625 77.625 -68.1875 C 84.164062 -65.976562 89.300781 -62.957031 93.03125 -59.125 C 96.757812 -55.300781 99.3125 -50.898438 100.6875 -45.921875 L 69.21875 -45.921875 C 65.925781 -50.441406 60.519531 -52.703125 53 -52.703125 C 45.90625 -52.703125 40.679688 -50.671875 37.328125 -46.609375 C 34.648438 -43.316406 33.3125 -39.441406 33.3125 -34.984375 C 33.3125 -30.515625 34.648438 -26.65625 37.328125 -23.40625 C 40.679688 -19.332031 45.90625 -17.296875 53 -17.296875 C 58.726562 -17.296875 63.035156 -17.789062 65.921875 -18.78125 C 68.804688 -19.769531 70.914062 -21.066406 72.25 -22.671875 L 60.765625 -22.671875 L 60.765625 -34.984375 L 100.6875 -34.984375 L 100.6875 0.046875 L 88.46875 0.046875 L 85.984375 -6.734375 C 78.191406 -1.234375 67.195312 1.515625 53 1.515625 Z M 53 1.515625 "/></g></g></g><g fill="rgb(100%, 100%, 100%)" fill-opacity="1"><g transform="translate(1077.146199, 549.226696)"><g><path d="M 37.21875 0 L 7.8125 0 L 7.8125 -70.09375 L 37.21875 -70.09375 Z M 37.21875 0 "/></g></g></g><g fill="rgb(100%, 100%, 100%)" fill-opacity="1"><g transform="translate(1121.679553, 549.226696)"><g><path d="M 92.234375 0 L 7.8125 0 L 7.8125 -70.09375 L 88.375 -70.09375 L 88.375 -52.765625 L 37.21875 -52.765625 L 37.21875 -41.765625 L 80.453125 -41.765625 L 80.453125 -28.28125 L 37.21875 -28.28125 L 37.21875 -17.34375 L 92.234375 -17.34375 Z M 92.234375 0 "/></g></g></g><g fill="rgb(100%, 100%, 100%)" fill-opacity="1"><g transform="translate(1217.303083, 549.226696)"><g><path d="M 46.3125 1.515625 C 36.832031 1.515625 29.191406 0.5 23.390625 -1.53125 C 17.597656 -3.570312 13.1875 -6.375 10.15625 -9.9375 C 7.132812 -13.507812 5.097656 -17.625 4.046875 -22.28125 L 35.265625 -22.28125 C 37.578125 -18.957031 41.257812 -17.296875 46.3125 -17.296875 C 51.351562 -17.296875 55.03125 -18.957031 57.34375 -22.28125 C 57.539062 -22.601562 57.640625 -22.894531 57.640625 -23.15625 C 57.640625 -24.03125 56.472656 -24.6875 54.140625 -25.125 C 51.816406 -25.570312 48.34375 -25.910156 43.71875 -26.140625 C 37.894531 -26.398438 31.773438 -27.015625 25.359375 -27.984375 C 11.054688 -30.203125 3.90625 -35.953125 3.90625 -45.234375 C 3.90625 -46.015625 3.953125 -46.847656 4.046875 -47.734375 C 5.097656 -52.390625 7.132812 -56.5 10.15625 -60.0625 C 13.1875 -63.625 17.597656 -66.421875 23.390625 -68.453125 C 29.191406 -70.492188 36.832031 -71.515625 46.3125 -71.515625 C 55.789062 -71.515625 63.425781 -70.492188 69.21875 -68.453125 C 75.019531 -66.421875 79.429688 -63.625 82.453125 -60.0625 C 85.484375 -56.5 87.519531 -52.390625 88.5625 -47.734375 L 57.34375 -47.734375 C 55.03125 -51.046875 51.351562 -52.703125 46.3125 -52.703125 C 41.257812 -52.703125 37.578125 -51.046875 35.265625 -47.734375 C 35.109375 -47.472656 35.03125 -47.226562 35.03125 -47 C 35.03125 -46.21875 36.144531 -45.640625 38.375 -45.265625 C 40.601562 -44.890625 43.890625 -44.570312 48.234375 -44.3125 C 52.585938 -44.050781 57.222656 -43.625 62.140625 -43.03125 C 67.054688 -42.445312 71.65625 -41.429688 75.9375 -39.984375 C 80.21875 -38.535156 83.566406 -36.394531 85.984375 -33.5625 C 87.867188 -31.375 88.8125 -28.601562 88.8125 -25.25 C 88.8125 -24.3125 88.726562 -23.320312 88.5625 -22.28125 C 87.519531 -17.625 85.484375 -13.507812 82.453125 -9.9375 C 79.429688 -6.375 75.019531 -3.570312 69.21875 -1.53125 C 63.425781 0.5 55.789062 1.515625 46.3125 1.515625 Z M 46.3125 1.515625 "/></g></g></g><g fill="rgb(100%, 100%, 100%)" fill-opacity="1"><g transform="translate(1309.495953, 549.226696)"><g/></g></g></svg>